<?xml version="1.0" encoding="UTF-8" standalone="no"?>
<!-- Generator: Adobe Illustrator 19.0.0, SVG Export Plug-In . SVG Version: 6.00 Build 0)  -->

<svg
   xmlns:dc="http://purl.org/dc/elements/1.1/"
   xmlns:cc="http://creativecommons.org/ns#"
   xmlns:rdf="http://www.w3.org/1999/02/22-rdf-syntax-ns#"
   xmlns:svg="http://www.w3.org/2000/svg"
   xmlns="http://www.w3.org/2000/svg"
   xmlns:sodipodi="http://sodipodi.sourceforge.net/DTD/sodipodi-0.dtd"
   xmlns:inkscape="http://www.inkscape.org/namespaces/inkscape"
   version="1.1"
   id="Capa_1"
   x="0px"
   y="0px"
   viewBox="0 0 60 60"
   style="enable-background:new 0 0 60 60;"
   xml:space="preserve"
   sodipodi:docname="camera.svg"
   inkscape:version="0.92.5 (2060ec1f9f, 2020-04-08)"><metadata
   id="metadata4075"><rdf:RDF><cc:Work
       rdf:about=""><dc:format>image/svg+xml</dc:format><dc:type
         rdf:resource="http://purl.org/dc/dcmitype/StillImage" /></cc:Work></rdf:RDF></metadata><defs
   id="defs4073" /><sodipodi:namedview
   pagecolor="#ffffff"
   bordercolor="#666666"
   borderopacity="1"
   objecttolerance="10"
   gridtolerance="10"
   guidetolerance="10"
   inkscape:pageopacity="0"
   inkscape:pageshadow="2"
   inkscape:window-width="1920"
   inkscape:window-height="1016"
   id="namedview4071"
   showgrid="false"
   inkscape:zoom="13.816667"
   inkscape:cx="30"
   inkscape:cy="30"
   inkscape:window-x="0"
   inkscape:window-y="27"
   inkscape:window-maximized="1"
   inkscape:current-layer="Capa_1" />
<g
   id="g4038"
   style="fill:#ffffff">
	<path
   d="M55.201,15.5h-8.524l-4-10H17.323l-4,10H12v-5H6v5H4.799C2.152,15.5,0,17.652,0,20.299v29.368   C0,52.332,2.168,54.5,4.833,54.5h50.334c2.665,0,4.833-2.168,4.833-4.833V20.299C60,17.652,57.848,15.5,55.201,15.5z M8,12.5h2v3H8   V12.5z M58,49.667c0,1.563-1.271,2.833-2.833,2.833H4.833C3.271,52.5,2,51.229,2,49.667V20.299C2,18.756,3.256,17.5,4.799,17.5H6h6   h2.677l4-10h22.646l4,10h9.878c1.543,0,2.799,1.256,2.799,2.799V49.667z"
   id="path4030"
   style="fill:#ffffff" />
	<path
   d="M30,14.5c-9.925,0-18,8.075-18,18s8.075,18,18,18s18-8.075,18-18S39.925,14.5,30,14.5z M30,48.5c-8.822,0-16-7.178-16-16   s7.178-16,16-16s16,7.178,16,16S38.822,48.5,30,48.5z"
   id="path4032"
   style="fill:#ffffff" />
	<path
   d="M30,20.5c-6.617,0-12,5.383-12,12s5.383,12,12,12s12-5.383,12-12S36.617,20.5,30,20.5z M30,42.5c-5.514,0-10-4.486-10-10   s4.486-10,10-10s10,4.486,10,10S35.514,42.5,30,42.5z"
   id="path4034"
   style="fill:#ffffff" />
	<path
   d="M52,19.5c-2.206,0-4,1.794-4,4s1.794,4,4,4s4-1.794,4-4S54.206,19.5,52,19.5z M52,25.5c-1.103,0-2-0.897-2-2s0.897-2,2-2   s2,0.897,2,2S53.103,25.5,52,25.5z"
   id="path4036"
   style="fill:#ffffff" />
</g>
<g
   id="g4040">
</g>
<g
   id="g4042">
</g>
<g
   id="g4044">
</g>
<g
   id="g4046">
</g>
<g
   id="g4048">
</g>
<g
   id="g4050">
</g>
<g
   id="g4052">
</g>
<g
   id="g4054">
</g>
<g
   id="g4056">
</g>
<g
   id="g4058">
</g>
<g
   id="g4060">
</g>
<g
   id="g4062">
</g>
<g
   id="g4064">
</g>
<g
   id="g4066">
</g>
<g
   id="g4068">
</g>
</svg>